<svg width="328" height="178" viewBox="0 0 328 178" fill="none" xmlns="http://www.w3.org/2000/svg">
<mask id="mask0" mask-type="alpha" maskUnits="userSpaceOnUse" x="0" y="0" width="328" height="178">
<rect width="328" height="178" fill="#5C9DDE"/>
</mask>
<g mask="url(#mask0)">
<ellipse cx="328.5" cy="99.5" rx="112.5" ry="108.5" fill="#3298dc"/>
<g opacity="0.5">
<path d="M297.362 113.318C317.125 109.128 329.686 89.4106 325.418 69.2779C321.15 49.1452 301.669 36.2209 281.906 40.4107C262.143 44.6005 249.582 64.3178 253.85 84.4505C258.139 104.569 277.604 117.483 297.362 113.318ZM261.632 81.0694L256.835 82.0863C254.085 64.9364 264.524 48.5493 281 44.154L282.036 49.0404C282.23 49.9555 283.115 50.543 284.013 50.3526C284.912 50.1621 285.483 49.2658 285.289 48.3508L284.253 43.4643C301.094 40.7964 317.285 51.5378 321.731 68.3282L315.307 69.6899C314.409 69.8804 313.838 70.7767 314.032 71.6917C314.226 72.6068 315.112 73.1943 316.01 73.0039L322.433 71.6422C325.183 88.7918 314.744 105.179 298.268 109.574L297.232 104.688C297.038 103.773 296.153 103.185 295.255 103.376C294.356 103.566 293.785 104.463 293.979 105.378L295.015 110.264C278.174 112.932 261.983 102.191 257.537 85.4002L262.334 84.3833C263.232 84.1929 263.803 83.2966 263.609 82.3815C263.415 81.4665 262.53 80.8789 261.632 81.0694Z" fill="#CC0000"/>
<path d="M321.695 47.5882C321.029 46.8352 320.337 46.1057 319.622 45.4007L322.77 40.4582C323.268 39.6766 323.046 38.6277 322.274 38.1153L311.099 30.7017C310.327 30.1895 309.297 30.4077 308.799 31.1892L305.642 36.1265C298.187 33.0308 290.044 32.1138 282.136 33.4794L280.02 23.4961L291.405 21.0823C292.304 20.8918 292.875 19.9955 292.681 19.0805C292.487 18.1654 291.601 17.5779 290.703 17.7683L264.678 23.2856C263.78 23.4761 263.209 24.3724 263.403 25.2874C263.597 26.2025 264.482 26.79 265.381 26.5996L276.766 24.1858L278.886 34.184C264.499 37.8235 253.013 48.7362 248.47 63.0822L239.524 64.9788C238.626 65.1692 238.055 66.0655 238.249 66.9806C238.443 67.8957 239.328 68.4832 240.227 68.2928L249.986 66.2238C250.028 66.2148 250.06 66.1857 250.101 66.1734C250.689 66.0568 251.165 65.6242 251.345 65.0439C257.609 43.5826 279.831 31.4803 300.98 38.0127C322.129 44.545 334.195 67.2389 327.931 88.7002C321.667 110.161 299.445 122.264 278.296 115.731C270.978 113.471 264.434 109.129 259.439 103.221C259.041 102.761 258.43 102.555 257.845 102.684C257.802 102.693 257.76 102.676 257.716 102.686L247.957 104.755C247.058 104.945 246.487 105.841 246.681 106.756C246.875 107.671 247.761 108.259 248.659 108.069L257.605 106.172C273.644 124.294 300.994 125.871 318.692 109.694C336.39 93.5163 337.734 65.7107 321.695 47.5882ZM308.723 37.5542L310.694 34.4599L319.072 40.0182L317.098 43.117C314.521 40.9457 311.711 39.0793 308.723 37.5542Z" fill="#CC0000"/>
<path d="M250.597 85.1402C250.403 84.2251 249.517 83.6376 248.619 83.828L235.607 86.5867C234.709 86.7771 234.138 87.6734 234.332 88.5885C234.526 89.5036 235.411 90.0911 236.309 89.9006L249.322 87.142C250.22 86.9516 250.791 86.0552 250.597 85.1402Z" fill="#CC0000"/>
<path d="M237.455 79.2691L248.841 76.8553C249.739 76.6649 250.31 75.7686 250.116 74.8535C249.922 73.9384 249.036 73.3509 248.138 73.5413L236.752 75.9552C235.854 76.1456 235.283 77.0419 235.477 77.957C235.671 78.872 236.556 79.4596 237.455 79.2691Z" fill="#CC0000"/>
<path d="M254.331 94.7372C254.137 93.8222 253.252 93.2347 252.353 93.4251L240.968 95.8389C240.069 96.0294 239.498 96.9257 239.692 97.8407C239.886 98.7558 240.772 99.3433 241.67 99.1529L253.056 96.739C253.954 96.5486 254.525 95.6523 254.331 94.7372Z" fill="#CC0000"/>
<path d="M287.587 88.911C288.359 89.4232 289.389 89.2049 289.887 88.4235L307.613 60.5983C308.098 59.8077 307.857 58.7627 307.077 58.2638C306.315 57.7773 305.315 57.9891 304.816 58.7429L287.992 85.1528L276.224 77.3455C275.443 76.8469 274.417 77.0832 273.933 77.8737C273.46 78.6448 273.676 79.6628 274.421 80.1761L287.587 88.911Z" fill="#CC0000"/>
<path d="M297.362 113.318C317.125 109.128 329.686 89.4106 325.418 69.2779C321.15 49.1452 301.669 36.2209 281.906 40.4107C262.143 44.6005 249.582 64.3178 253.85 84.4505C258.139 104.569 277.604 117.483 297.362 113.318ZM261.632 81.0694L256.835 82.0863C254.085 64.9364 264.524 48.5493 281 44.154L282.036 49.0404C282.23 49.9555 283.115 50.543 284.013 50.3526C284.912 50.1621 285.483 49.2658 285.289 48.3508L284.253 43.4643C301.094 40.7964 317.285 51.5378 321.731 68.3282L315.307 69.6899C314.409 69.8804 313.838 70.7767 314.032 71.6917C314.226 72.6068 315.112 73.1943 316.01 73.0039L322.433 71.6422C325.183 88.7918 314.744 105.179 298.268 109.574L297.232 104.688C297.038 103.773 296.153 103.185 295.255 103.376C294.356 103.566 293.785 104.463 293.979 105.378L295.015 110.264C278.174 112.932 261.983 102.191 257.537 85.4002L262.334 84.3833C263.232 84.1929 263.803 83.2966 263.609 82.3815C263.415 81.4665 262.53 80.8789 261.632 81.0694Z" stroke="#CC0000"/>
<path d="M321.695 47.5882C321.029 46.8352 320.337 46.1057 319.622 45.4007L322.77 40.4582C323.268 39.6766 323.046 38.6277 322.274 38.1153L311.099 30.7017C310.327 30.1895 309.297 30.4077 308.799 31.1892L305.642 36.1265C298.187 33.0308 290.044 32.1138 282.136 33.4794L280.02 23.4961L291.405 21.0823C292.304 20.8918 292.875 19.9955 292.681 19.0805C292.487 18.1654 291.601 17.5779 290.703 17.7683L264.678 23.2856C263.78 23.4761 263.209 24.3724 263.403 25.2874C263.597 26.2025 264.482 26.79 265.381 26.5996L276.766 24.1858L278.886 34.184C264.499 37.8235 253.013 48.7362 248.47 63.0822L239.524 64.9788C238.626 65.1692 238.055 66.0655 238.249 66.9806C238.443 67.8957 239.328 68.4832 240.227 68.2928L249.986 66.2238C250.028 66.2148 250.06 66.1857 250.101 66.1734C250.689 66.0568 251.165 65.6242 251.345 65.0439C257.609 43.5826 279.831 31.4803 300.98 38.0127C322.129 44.545 334.195 67.2389 327.931 88.7002C321.667 110.161 299.445 122.264 278.296 115.731C270.978 113.471 264.434 109.129 259.439 103.221C259.041 102.761 258.43 102.555 257.845 102.684C257.802 102.693 257.76 102.676 257.716 102.686L247.957 104.755C247.058 104.945 246.487 105.841 246.681 106.756C246.875 107.671 247.761 108.259 248.659 108.069L257.605 106.172C273.644 124.294 300.994 125.871 318.692 109.694C336.39 93.5163 337.734 65.7107 321.695 47.5882ZM308.723 37.5542L310.694 34.4599L319.072 40.0182L317.098 43.117C314.521 40.9457 311.711 39.0793 308.723 37.5542Z" stroke="#CC0000"/>
<path d="M250.597 85.1402C250.403 84.2251 249.517 83.6376 248.619 83.828L235.607 86.5867C234.709 86.7771 234.138 87.6734 234.332 88.5885C234.526 89.5036 235.411 90.0911 236.309 89.9006L249.322 87.142C250.22 86.9516 250.791 86.0552 250.597 85.1402Z" stroke="#CC0000"/>
<path d="M237.455 79.2691L248.841 76.8553C249.739 76.6649 250.31 75.7686 250.116 74.8535C249.922 73.9384 249.036 73.3509 248.138 73.5413L236.752 75.9552C235.854 76.1456 235.283 77.0419 235.477 77.957C235.671 78.872 236.556 79.4596 237.455 79.2691Z" stroke="#CC0000"/>
<path d="M254.331 94.7372C254.137 93.8222 253.252 93.2347 252.353 93.4251L240.968 95.8389C240.069 96.0294 239.498 96.9257 239.692 97.8407C239.886 98.7558 240.772 99.3433 241.67 99.1529L253.056 96.739C253.954 96.5486 254.525 95.6523 254.331 94.7372Z" stroke="#CC0000"/>
<path d="M287.587 88.911C288.359 89.4232 289.389 89.2049 289.887 88.4235L307.613 60.5983C308.098 59.8077 307.857 58.7627 307.077 58.2638C306.315 57.7773 305.315 57.9891 304.816 58.7429L287.992 85.1528L276.224 77.3455C275.443 76.8469 274.417 77.0832 273.933 77.8737C273.46 78.6448 273.676 79.6628 274.421 80.1761L287.587 88.911Z" stroke="#CC0000"/>
</g>
</g>
</svg>
